<svg xmlns="http://www.w3.org/2000/svg" height="234" width="240" viewBox="0 0 240 234"><path fill="#fbb500" d="M0 0h240v234H0z"></path><path fill="#261c00" d="M10 10h220v214H10z"></path><path d="M64 58.6c0-.8.2-1.1.8-1.3 4.5-.2 17-.5 26.8-.5 29.8 0 35.1 17.4 35.1 27.9 0 11.9-5.8 18.7-10 22.1 6 2.9 14.8 10.3 14.8 25.6 0 20.3-16.3 32.7-41.1 32.5-10.6 0-20.2-.2-25.3-.3-.8-.2-1.1-.6-1.1-1.3V58.6zM81 101h9.8c4.7 0 10.4-.3 12.7.2 3.4-2.9 6.1-7.2 6.1-14.2 0-10-7.1-15-18.5-15-3.9 0-7.6.2-10.1.3zm0 48.6c2.9.2 5.6 0 9.2 0 12.7 0 23.3-4.8 23.3-17.1 0-7.6-3.9-12.9-11.8-15.3-2.7-.8-6-1.3-9.5-1.3H81zm66-48.2c0-1.1 0-4-.5-9.5 0-.8.3-1 .9-1.3 6-2.4 19.6-6.8 35.4-6.8.8 0 1.1.2 1.1 1V99c0 .8 0 1-.8 1-6.1-.3-14.8.5-18.2 1.9v62c0 .8-.3 1.1-1.1 1.1h-15.7c-.8 0-1.1-.3-1.1-1.1z" fill="#fbb500"></path></svg>